PathFileType	4	(X/Y/Z)	Patient4_TMGait_0pt7_02_left_02.trc.trc
DataRate	CameraRate	NumFrames	NumMarkers	Units	OrigDataRate	OrigDataStartFrame	OrigNumFrames
83.832335329341	83.832335329341	4	33	mm	83.832335329341	89	       141
Frame#	Time	Sacral			L.Shoulder			Chest			R.Shoulder			Neck			R.ASIS			L.ASIS			R.Thigh.Superior			R.Thigh.Lateral			R.Thigh.Inferior			R.Patella			L.Thigh.Superior			L.Thigh.Lateral			L.Thigh.Inferior			L.Patella			L.Shank.Superior			L.Shank.Lateral			L.Shank.Inferior			R.Shank.Superior			R.Shank.Lateral			R.Shank.Inferior			R.Heel			R.Midfoot.Superior			R.Midfoot.Lateral			R.Toe			L.Heel			L.Midfoot.Lateral			L.Midfoot.Superior			L.Toe			L.Elbow			L.Wrist			R.Elbow			R.Wrist			
		X1	Y1	Z1	X2	Y2	Z2	X3	Y3	Z3	X4	Y4	Z4	X5	Y5	Z5	X6	Y6	Z6	X7	Y7	Z7	X8	Y8	Z8	X9	Y9	Z9	X10	Y10	Z10	X11	Y11	Z11	X12	Y12	Z12	X13	Y13	Z13	X14	Y14	Z14	X15	Y15	Z15	X16	Y16	Z16	X17	Y17	Z17	X18	Y18	Z18	X19	Y19	Z19	X20	Y20	Z20	X21	Y21	Z21	X22	Y22	Z22	X23	Y23	Z23	X24	Y24	Z24	X25	Y25	Z25	X26	Y26	Z26	X27	Y27	Z27	X28	Y28	Z28	X29	Y29	Z29	X30	Y30	Z30	X31	Y31	Z31	X32	Y32	Z32	X33	Y33	Z33	

89	2.859714285714	813.121213234072	1005.453561903977	487.432887611512	1010.934652685564	1424.758633414843	293.494746409854	1108.257526325941	1352.777453735199	456.865627030428	1025.717397557370	1437.430468857359	626.366921271263	1013.379351651736	1486.563094264165	445.897563696535	1042.449959478073	933.092028635640	601.319843868173	1024.238423815666	957.615720709687	325.315048071218	1106.660538613755	749.995024084367	572.047107434745	1040.263658917334	632.683051824582	633.602702629570	1126.294840739289	590.200251590563	555.164245426513	1141.742562092773	499.859901929478	564.064372653246	1038.171367828222	731.471867566748	340.756897941173	929.457840876522	630.472485989566	280.681366235804	1007.348546985761	534.707903536208	330.263212125705	991.550953520010	453.017261726034	327.617187667142	924.385354080664	399.418968826762	324.632038345606	783.113566026800	351.769251409353	283.060541429640	777.051056040501	222.179255755864	339.117881297814	1115.416445026177	409.282340492335	570.946659915287	1048.028453993793	303.055488616505	632.674599074798	1094.703252039839	209.174879746374	571.588181615263	967.986619774907	42.900081952384	543.854618031374	1138.800968179950	98.769547086243	579.337908955543	1051.386214579637	37.406424825635	617.533192534926	1259.426880648766	45.772418478236	606.284266053972	590.993498324722	143.283946975394	384.342010826348	650.230278203393	95.964755981384	307.671978592151	753.276868998647	116.403553715579	324.867423515576	840.672023909706	32.113973993604	308.228141276454	994.943793014557	1082.546302673386	163.099344365128	1234.375483469383	991.859984095843	189.300800168998	896.678421716610	1118.654959911976	749.088406812262	889.702489105341	856.138966669142	741.202718349482	
90	2.871642857143	812.765169282627	1006.642878204405	491.092831061393	1009.735484707131	1425.487112089133	295.647364885749	1108.346117770198	1353.726767650009	458.382470738578	1027.099009977793	1438.494061720972	628.383865085299	1013.238941083422	1487.434725366482	448.087556626465	1042.559970639348	934.245299750354	603.827007516698	1022.812917851654	958.060502718595	328.356504098769	1104.440037968844	748.847810328039	575.445197311183	1035.963505391131	632.680863748276	636.004352915199	1121.302275886063	589.275021073867	557.271592156864	1135.431745458220	499.052557434491	565.524496276224	1043.195652898537	733.754702905263	343.763415569770	939.402390639864	629.796185355581	282.286649602391	1020.216683865628	535.845198395021	332.267395112643	1005.494508012068	452.756120340916	328.751881917966	936.045958741456	399.525757971737	325.630790444833	793.153736095223	357.342095472284	283.565056196458	782.069450078825	228.059731201392	339.102390598507	1108.809056261357	408.772237916043	572.372259456169	1041.152683955952	302.658378815261	633.855451936981	1087.222627043098	208.814944454463	572.193886803137	959.760835925978	42.841156247844	544.025151750152	1130.650418463901	98.829592457397	579.552703693973	1043.136104859014	37.339040440429	617.699565073305	1251.234379120615	45.416654830288	606.478385141196	593.194415601422	159.935792088458	383.600712002677	649.340423199919	108.529639175711	307.158162722230	753.417675469110	121.786359326783	324.549474189986	833.756636927311	30.737669253047	308.210028904593	986.956147810444	1081.723824697178	169.049572300955	1220.896052194605	974.448611721034	190.731578794364	904.085266563733	1117.402551501931	753.230652626639	909.528765457459	854.904722975201	745.218737997181	
91	2.883571428571	812.234141862381	1007.652111935151	494.689208127000	1008.276177829255	1425.978161485986	297.643558129833	1108.313578164996	1354.393638623787	459.672725770568	1028.564829320573	1439.280882185299	630.256049551418	1013.006678602837	1488.098579655778	450.154250149092	1042.440736087296	935.199527416850	606.162191450098	1021.032388647173	958.219833945242	331.327675900094	1101.920467685552	747.704336808349	578.642208628440	1031.572512297568	632.684496804797	638.407868973280	1116.148802713226	588.374664588117	559.349442937145	1128.949949635066	498.268854477745	567.064455499058	1048.200872102334	736.305741580127	346.920405845752	949.756399095402	629.442526524111	283.820541331806	1033.323758228872	537.535891183958	334.532378353755	1019.897901057423	453.107560022421	330.263000911090	948.412357678769	400.063324336304	326.842379817925	804.218786945788	363.128505593733	284.078049218924	788.218389363019	234.364977201151	339.283094000000	1102.074808958093	408.267685333278	573.847028988972	1034.168211017668	302.249576259596	635.077451940208	1079.665748371816	208.456427435727	572.846080477743	951.483623157544	42.792807835095	544.197181916315	1122.474795827852	98.773911422821	579.783577577724	1034.841399658283	37.262598889432	617.864110229365	1243.007134621925	44.988518692887	606.644196463274	597.077972239671	176.947996448143	382.923827086030	650.063720150118	121.805757867141	306.664724060901	754.817053844698	127.917135053488	324.423679651733	827.923246244657	29.600316330646	308.150701993466	979.210066989788	1080.826406553755	174.896873407829	1206.172782787526	956.883685495187	192.310010415237	911.707604803458	1116.071659971849	757.347005382012	930.338026002872	854.208277707812	749.151980625653	
92	2.895500000000	811.541534765024	1008.490893768895	498.183984231254	1006.587596427215	1426.260109599642	299.468235869991	1108.150904124435	1354.789607456516	460.728509611314	1030.085372552474	1439.818202877833	631.962505617173	1012.705565789393	1488.581959230373	452.063941743255	1042.082306584913	935.995305138000	608.342355948635	1018.971150460737	958.140304497759	334.176755019143	1099.159292481200	746.642178733221	581.594181827560	1027.166697687819	632.722898716703	640.799723475834	1110.920514205551	587.532131626115	561.402711746621	1122.378140363761	497.530569773643	568.692712828552	1053.058202637141	739.180580265975	350.170700877324	960.254831587129	629.553830429509	285.277772291614	1046.406860565824	539.884974503250	336.943423093435	1034.517938983120	454.185809111862	331.997473732372	961.274628453801	401.130448475019	328.169241610845	816.067527964421	369.070235647937	284.610600278607	795.457937590023	240.958653266610	339.626845768287	1095.284005478064	407.786967035266	575.368035335970	1027.123900830341	301.859290666376	636.341067839681	1072.060751724520	208.116119503749	573.548995196083	943.159424697420	42.764808416165	544.381837327130	1114.270234656480	98.637439662927	580.041116247332	1026.507374806836	37.188752506890	618.038343179486	1234.747108683155	44.523224983746	606.799934746410	602.614632192580	193.691259527123	382.361616448903	652.530710024379	135.276494908148	306.231931145460	757.632925952875	134.625051476274	324.464080691286	823.649265050839	28.924923252678	308.051497020640	971.708483394377	1079.858465594668	180.591778097246	1190.139920188578	939.412240765779	194.064546982284	919.634679360716	1114.635465063431	761.369157531434	952.066088916519	854.135026212111	752.884312582610	
